<?xml version="1.0" encoding="UTF-8"?>
<svg width="19px" height="19px" viewBox="0 0 19 19" version="1.1" xmlns="http://www.w3.org/2000/svg" xmlns:xlink="http://www.w3.org/1999/xlink">
    <g id="Symbols" stroke="none" stroke-width="1" fill="none" fill-rule="evenodd">
        <g id="ic_contract_expired">
            <g>
                <g id="ic_doc" fill-rule="nonzero" fill="#939597">
                    <path d="M1.5,1.5 L1.5,16.5 L14.5,16.5 L14.5,4.24730721 L12.1808424,1.5 L1.5,1.5 Z M12.6453494,0.5 L15.5,3.8816599 L15.5,17.5 L0.5,17.5 L0.5,0.5 L12.6453494,0.5 Z" id="Rectangle-9"></path>
                    <polygon id="Path" points="3 6.5 12.0299997 6.5 12.0299997 5.5 3 5.5"></polygon>
                    <polygon id="Path" points="3 8.5 12.0299997 8.5 12.0299997 7.5 3 7.5"></polygon>
                    <polygon id="Path" points="3.41886203 10.5 8.45334342 10.5 8.45334342 9.5 3.41886203 9.5"></polygon>
                </g>
                <g id="ic_expired" transform="translate(7.000000, 7.000000)">
                    <path d="M6,11.5 C2.96243388,11.5 0.5,9.03756612 0.5,6 C0.5,2.96243388 2.96243388,0.5 6,0.5 C9.03756612,0.5 11.5,2.96243388 11.5,6 C11.5,9.03756612 9.03756612,11.5 6,11.5 Z" id="Oval-2" fill="#FFFFFF" fill-rule="nonzero"></path>
                    <path d="M6,10.5 C8.48528137,10.5 10.5,8.48528137 10.5,6 C10.5,3.51471863 8.48528137,1.5 6,1.5 C3.51471863,1.5 1.5,3.51471863 1.5,6 C1.5,8.48528137 3.51471863,10.5 6,10.5 Z" id="Path" fill="#EE3222"></path>
                    <path d="M3.3927343,4.10295186 L5.81555121,6.52576877 L8.0071178,8.66075476 C8.20491927,8.85344412 8.52147464,8.84929992 8.71416399,8.65149845 C8.90685335,8.45369697 8.90270915,8.13714161 8.70490768,7.94445225 L6.51799954,5.81406413 L4.09984108,3.39584508 C3.90457894,3.20058293 3.58799645,3.20058293 3.3927343,3.39584508 C3.19747216,3.59110722 3.19747216,3.90768971 3.3927343,4.10295186 Z" id="Path-4" fill="#FFFFFF" fill-rule="nonzero"></path>
                    <path d="M3.3927343,7.94905012 L5.82020967,5.52163534 L8.0071178,3.39124721 C8.48300278,2.92766134 9.18004303,3.63825686 8.70737861,4.10512593 L4.09765356,8.65833096 C3.62481085,9.12537614 2.92278141,8.419003 3.3927343,7.94905012 Z" id="Path-4" fill="#FFFFFF" fill-rule="nonzero"></path>
                </g>
            </g>
        </g>
    </g>
</svg>
