<?xml version="1.0" encoding="UTF-8"?>
<svg width="19px" height="19px" viewBox="0 0 19 19" version="1.1" xmlns="http://www.w3.org/2000/svg" xmlns:xlink="http://www.w3.org/1999/xlink">
    <g id="Symbols" stroke="none" stroke-width="1" fill="none" fill-rule="evenodd">
        <g id="ic_contract_pending" transform="translate(1.000000, 1.000000)">
            <g>
                <g id="Group-4" fill-rule="nonzero" fill="#939597">
                    <path d="M0.5,0.5 L0.5,15.5 L13.5,15.5 L13.5,3.24730721 L11.1808424,0.5 L0.5,0.5 Z M11.6453494,-0.5 L14.5,2.8816599 L14.5,16.5 L-0.5,16.5 L-0.5,-0.5 L11.6453494,-0.5 Z" id="Rectangle-9"></path>
                    <polygon id="Path" points="2 5.5 11.0299997 5.5 11.0299997 4.5 2 4.5"></polygon>
                    <polygon id="Path" points="2 7.5 11.0299997 7.5 11.0299997 6.5 2 6.5"></polygon>
                    <polygon id="Path" points="2.41886203 9.5 7.45334342 9.5 7.45334342 8.5 2.41886203 8.5"></polygon>
                </g>
                <g id="Group-5" transform="translate(6.000000, 6.000000)">
                    <path d="M6,11.5 C2.96243388,11.5 0.5,9.03756612 0.5,6 C0.5,2.96243388 2.96243388,0.5 6,0.5 C9.03756612,0.5 11.5,2.96243388 11.5,6 C11.5,9.03756612 9.03756612,11.5 6,11.5 Z" id="oval" fill="#FFFFFF" fill-rule="nonzero"></path>
                    <path d="M6,10.5 C8.48528137,10.5 10.5,8.48528137 10.5,6 C10.5,3.51471863 8.48528137,1.5 6,1.5 C3.51471863,1.5 1.5,3.51471863 1.5,6 C1.5,8.48528137 3.51471863,10.5 6,10.5 Z" id="Path" fill="#F68A1E"></path>
                    <path d="M8.29748656,7.65032325 C8.60920295,7.96626497 8.3853925,8.50148859 7.94156115,8.50148859 L4.00670344,8.50148859 C3.561498,8.50148859 3.33830291,7.96342786 3.65278796,7.64829766 L5.98738663,5.30890969 L8.29748656,7.65032325 Z M5.98738663,5.30890969 L6.79268199,4.50196231 L5.19379435,4.50456019 L5.98738663,5.30890969 Z M3.64407458,4.35766455 C3.33263261,4.04200096 3.55574754,3.50722037 3.9991876,3.50649987 L7.9991876,3.50000066 C8.44478413,3.49927665 8.6686772,4.03778349 8.35391548,4.35319093 L5.98333533,6.7286342 L3.64407458,4.35766455 Z M5.21206316,7.50148859 L6.74585371,7.50148859 L5.98333533,6.7286342 L5.21206316,7.50148859 Z" id="ic_pending" fill="#FFFFFF" fill-rule="nonzero"></path>
                </g>
            </g>
        </g>
    </g>
</svg>
