<?xml version="1.0" encoding="UTF-8"?>
<svg width="19px" height="19px" viewBox="0 0 19 19" version="1.1" xmlns="http://www.w3.org/2000/svg" xmlns:xlink="http://www.w3.org/1999/xlink">
    <g id="Symbols" stroke="none" stroke-width="1" fill="none" fill-rule="evenodd">
        <g id="ic_contract_not_expired" transform="translate(1.000000, 1.000000)">
            <g>
                <g id="ic_document" fill-rule="nonzero" fill="#939597">
                    <path d="M0.5,0.5 L0.5,15.5 L13.5,15.5 L13.5,3.24730721 L11.1808424,0.5 L0.5,0.5 Z M11.6453494,-0.5 L14.5,2.8816599 L14.5,16.5 L-0.5,16.5 L-0.5,-0.5 L11.6453494,-0.5 Z" id="Rectangle-9"></path>
                    <polygon id="Path" points="2 5.5 11.0299997 5.5 11.0299997 4.5 2 4.5"></polygon>
                    <polygon id="Path" points="2 7.5 11.0299997 7.5 11.0299997 6.5 2 6.5"></polygon>
                    <polygon id="Path" points="2.41886203 9.5 7.45334342 9.5 7.45334342 8.5 2.41886203 8.5"></polygon>
                </g>
                <g id="ic_notexpired" transform="translate(6.000000, 6.000000)">
                    <path d="M6,11.5 C2.96243388,11.5 0.5,9.03756612 0.5,6 C0.5,2.96243388 2.96243388,0.5 6,0.5 C9.03756612,0.5 11.5,2.96243388 11.5,6 C11.5,9.03756612 9.03756612,11.5 6,11.5 Z" id="Oval-2" fill="#FFFFFF" fill-rule="nonzero"></path>
                    <path d="M6,10.5 C8.48528137,10.5 10.5,8.48528137 10.5,6 C10.5,3.51471863 8.48528137,1.5 6,1.5 C3.51471863,1.5 1.5,3.51471863 1.5,6 C1.5,8.48528137 3.51471863,10.5 6,10.5 Z" id="Path" fill="#7FC241"></path>
                    <path d="M5.387261,7.32683899 L3.34258658,5.40345338 C3.14144994,5.21424803 2.82501523,5.22392026 2.63580989,5.42505691 C2.44660455,5.62619355 2.45627678,5.94262825 2.65741342,6.1318336 L5.03054247,8.36419011 C5.21716823,8.53974535 5.50630023,8.54581522 5.70012933,8.37824703 L10.3270003,4.37824703 C10.5359003,4.19764976 10.5588443,3.88189978 10.378247,3.67299972 C10.1976498,3.46409965 9.88189978,3.4411557 9.67299972,3.62175297 L5.387261,7.32683899 Z" id="Path-4" fill="#FFFFFF" fill-rule="nonzero"></path>
                </g>
            </g>
        </g>
    </g>
</svg>
