<?xml version="1.0" encoding="UTF-8"?>
<svg width="34px" height="34px" viewBox="0 0 34 34" version="1.1" xmlns="http://www.w3.org/2000/svg" xmlns:xlink="http://www.w3.org/1999/xlink">
    <!-- Generator: Sketch 47.1 (45422) - http://www.bohemiancoding.com/sketch -->
    <title>img_chatbot_ava</title>
    <desc>Created with Sketch.</desc>
    <defs></defs>
    <g id="Mockups" stroke="none" stroke-width="1" fill="none" fill-rule="evenodd">
        <g id="Work-Area-chatbot" transform="translate(-1127.000000, -465.000000)">
            <g id="Group-7" transform="translate(1112.000000, 269.000000)">
                <g id="Group-4-Copy-2" transform="translate(15.000000, 194.000000)">
                    <g id="img_chatbot_ava" transform="translate(0.000000, 2.000000)">
                        <rect id="Rectangle-3" fill-opacity="0.291978034" fill="#667CA0" x="0" y="0" width="34" height="34" rx="17"></rect>
                        <g id="ic_chatbot" transform="translate(5.000000, 4.000000)" fill="#FFFFFF" fill-rule="nonzero">
                            <path d="M12.682682,5.13686574 L12.682682,7.31818182 L21.9130435,7.31818182 C23.0656377,7.31818182 24,8.2543137 24,9.40909091 L24,17.7727273 C24,18.9275045 23.0656377,19.8636364 21.9130435,19.8636364 L19.6945905,19.8636364 C19.2312414,21.667283 17.5970498,23 15.6521739,23 L8.34782609,23 C6.40295016,23 4.76875855,21.667283 4.30540955,19.8636364 L2.08695652,19.8636364 C0.934362261,19.8636364 1.41152087e-16,18.9275045 0,17.7727273 L0,9.40909091 C-1.41152087e-16,8.2543137 0.934362261,7.31818182 2.08695652,7.31818182 L11.4782609,7.31818182 L11.4782609,5.17499053 C10.2875268,4.93282649 9.39130435,3.87809163 9.39130435,2.61363636 C9.39130435,1.17016486 10.5592572,7.29436497e-16 12,0 C13.4407428,-2.65161414e-16 14.6086957,1.17016486 14.6086957,2.61363636 C14.6086957,3.82045251 13.792318,4.83623232 12.682682,5.13686574 Z M18.604481,19.8636364 L5.395519,19.8636364 C5.82526134,21.081792 6.98481514,21.9545455 8.34782609,21.9545455 L15.6521739,21.9545455 C17.0151849,21.9545455 18.1747387,21.081792 18.604481,19.8636364 Z M2.08695652,8.36363636 C1.51065939,8.36363636 1.04347826,8.83170231 1.04347826,9.40909091 L1.04347826,17.7727273 C1.04347826,18.3501159 1.51065939,18.8181818 2.08695652,18.8181818 L21.9130435,18.8181818 C22.4893406,18.8181818 22.9565217,18.3501159 22.9565217,17.7727273 L22.9565217,9.40909091 C22.9565217,8.83170231 22.4893406,8.36363636 21.9130435,8.36363636 L2.08695652,8.36363636 Z M12,1.04545455 C11.1355543,1.04545455 10.4347826,1.74755346 10.4347826,2.61363636 C10.4347826,3.47971927 11.1355543,4.18181818 12,4.18181818 C12.8644457,4.18181818 13.5652174,3.47971927 13.5652174,2.61363636 C13.5652174,1.74755346 12.8644457,1.04545455 12,1.04545455 Z M6.26086957,10.4545455 C7.98976096,10.4545455 9.39130435,11.8587433 9.39130435,13.5909091 C9.39130435,15.3230749 7.98976096,16.7272727 6.26086957,16.7272727 C4.53197817,16.7272727 3.13043478,15.3230749 3.13043478,13.5909091 C3.13043478,11.8587433 4.53197817,10.4545455 6.26086957,10.4545455 Z M17.7391304,10.4545455 C19.4680218,10.4545455 20.8695652,11.8587433 20.8695652,13.5909091 C20.8695652,15.3230749 19.4680218,16.7272727 17.7391304,16.7272727 C16.010239,16.7272727 14.6086957,15.3230749 14.6086957,13.5909091 C14.6086957,11.8587433 16.010239,10.4545455 17.7391304,10.4545455 Z M6.26086957,11.5 C5.1082753,11.5 4.17391304,12.4361319 4.17391304,13.5909091 C4.17391304,14.7456863 5.1082753,15.6818182 6.26086957,15.6818182 C7.41346383,15.6818182 8.34782609,14.7456863 8.34782609,13.5909091 C8.34782609,12.4361319 7.41346383,11.5 6.26086957,11.5 Z M17.7391304,11.5 C16.5865362,11.5 15.6521739,12.4361319 15.6521739,13.5909091 C15.6521739,14.7456863 16.5865362,15.6818182 17.7391304,15.6818182 C18.8917247,15.6818182 19.826087,14.7456863 19.826087,13.5909091 C19.826087,12.4361319 18.8917247,11.5 17.7391304,11.5 Z"></path>
                        </g>
                    </g>
                </g>
            </g>
        </g>
    </g>
</svg>