<?xml version="1.0" encoding="UTF-8"?>
<svg width="24px" height="24px" viewBox="0 0 24 24" version="1.1" xmlns="http://www.w3.org/2000/svg" xmlns:xlink="http://www.w3.org/1999/xlink">
    <defs>
        <rect id="path-1" x="0" y="0" width="24" height="24" rx="12"></rect>
    </defs>
    <g id="Mockups" stroke="none" stroke-width="1" fill="none" fill-rule="evenodd">
        <g id="Workgroups-Hiden-Preview-fullscreen" transform="translate(-953.000000, -186.000000)">
            <g id="row-2" transform="translate(49.000000, 130.000000)">
                <g id="img_unassigned" transform="translate(904.000000, 56.000000)">
                    <g id="bg">
                        <use fill="#FFFFFF" xlink:href="#path-1"></use>
                        <use fill-opacity="0.599750906" fill="#C8C8C8" xlink:href="#path-1"></use>
                    </g>
                    <path d="M10.7142857,11.7142857 C10.0044607,11.7142857 9.39844001,11.4631722 8.89620536,10.9609375 C8.3939707,10.4587028 8.14285714,9.85268212 8.14285714,9.14285714 C8.14285714,8.43303217 8.3939707,7.82701144 8.89620536,7.32477679 C9.39844001,6.82254213 10.0044607,6.57142857 10.7142857,6.57142857 C11.4241107,6.57142857 12.0301314,6.82254213 12.5323661,7.32477679 C13.0346007,7.82701144 13.2857143,8.43303217 13.2857143,9.14285714 C13.2857143,9.85268212 13.0346007,10.4587028 12.5323661,10.9609375 C12.0301314,11.4631722 11.4241107,11.7142857 10.7142857,11.7142857 Z M17.9263393,13.8571429 L19.59375,15.5245536 C19.6339288,15.5647323 19.6540179,15.6160711 19.6540179,15.6785714 C19.6540179,15.7366074 19.6339288,15.7857141 19.59375,15.8258929 L18.6830357,16.7366071 C18.6428569,16.7767859 18.5937503,16.796875 18.5357143,16.796875 C18.473214,16.796875 18.4218752,16.7767859 18.3816964,16.7366071 L16.7142857,15.0691964 L15.046875,16.7366071 C15.0066962,16.7767859 14.9553575,16.796875 14.8928571,16.796875 C14.8348211,16.796875 14.7857145,16.7767859 14.7455357,16.7366071 L13.8348214,15.8258929 C13.7946427,15.7857141 13.7745536,15.7366074 13.7745536,15.6785714 C13.7745536,15.6160711 13.7946427,15.5647323 13.8348214,15.5245536 L15.5022321,13.8571429 L13.8348214,12.1897321 C13.7946427,12.1495534 13.7745536,12.0982146 13.7745536,12.0357143 C13.7745536,11.9776783 13.7946427,11.9285716 13.8348214,11.8883929 L14.7455357,10.9776786 C14.7857145,10.9374998 14.8348211,10.9174107 14.8928571,10.9174107 C14.9553575,10.9174107 15.0066962,10.9374998 15.046875,10.9776786 L16.7142857,12.6450893 L18.3816964,10.9776786 C18.4218752,10.9374998 18.473214,10.9174107 18.5357143,10.9174107 C18.5937503,10.9174107 18.6428569,10.9374998 18.6830357,10.9776786 L19.59375,11.8883929 C19.6339288,11.9285716 19.6540179,11.9776783 19.6540179,12.0357143 C19.6540179,12.0982146 19.6339288,12.1495534 19.59375,12.1897321 L17.9263393,13.8571429 Z M14.5915179,13.8571429 L13.3794643,15.0691964 C13.2142849,15.2343758 13.1316964,15.4374988 13.1316964,15.6785714 C13.1316964,15.9151798 13.2142849,16.1160706 13.3794643,16.28125 L13.9352679,16.8370536 C13.8415174,16.8504465 13.7433041,16.8571429 13.640625,16.8571429 L7.78794643,16.8571429 C7.24776516,16.8571429 6.81473377,16.7031265 6.48883929,16.3950893 C6.1629448,16.087052 6,15.6629491 6,15.1227679 C6,14.8861595 6.00781242,14.6551351 6.0234375,14.4296875 C6.03906258,14.2042399 6.07031227,13.9609388 6.1171875,13.6997768 C6.16406273,13.4386148 6.22321393,13.1964297 6.29464286,12.9732143 C6.36607179,12.7499989 6.46205297,12.5323671 6.58258929,12.3203125 C6.7031256,12.1082579 6.84151708,11.9274561 6.99776786,11.7779018 C7.15401864,11.6283475 7.34486494,11.508929 7.5703125,11.4196429 C7.79576006,11.3303567 8.0446415,11.2857143 8.31696429,11.2857143 C8.40178614,11.2857143 8.48883884,11.3236603 8.578125,11.3995536 C9.26562844,11.9441992 9.97767489,12.2165179 10.7142857,12.2165179 C11.4508965,12.2165179 12.162943,11.9441992 12.8504464,11.3995536 C12.9397326,11.3236603 13.0267853,11.2857143 13.1116071,11.2857143 C13.2366078,11.2857143 13.3638386,11.299107 13.4933036,11.3258929 C13.3683029,11.4464292 13.276786,11.5580352 13.21875,11.6607143 C13.160714,11.7633934 13.1316964,11.8883921 13.1316964,12.0357143 C13.1316964,12.2767869 13.2142849,12.4799099 13.3794643,12.6450893 L14.5915179,13.8571429 Z" id="ic_unassigned" fill="#767676"></path>
                </g>
            </g>
        </g>
    </g>
</svg>
