<?xml version="1.0" encoding="UTF-8"?>
<svg width="22px" height="30px" viewBox="0 0 22 30" version="1.1" xmlns="http://www.w3.org/2000/svg" xmlns:xlink="http://www.w3.org/1999/xlink">
    <g id="Symbols" stroke="none" stroke-width="1" fill="none" fill-rule="evenodd">
        <g id="Sidemenu" transform="translate(-25.000000, -26.000000)" fill="#fafafa">
            <g id="logo_er">
                <g transform="translate(25.000000, 26.000000)">
                    <path d="M3.92831492,11.8170734 C2.41329233,12.3835769 0.734956435,11.5903233 0.179399548,10.0447054 C-0.376157339,8.49983088 0.401768118,6.78916861 1.91679071,6.22192163 L18.0716851,0.182934424 C19.5867077,-0.383569116 21.2650436,0.409684528 21.8206005,1.95455901 C22.3761573,3.49943349 21.5982319,5.2108392 20.0832093,5.77734274 L3.92831492,11.8170734 Z" id="Fill-1"></path>
                    <path d="M3.92831492,20.8171556 C2.41329233,21.3836631 0.734956435,20.5896605 0.179399548,19.0447753 C-0.376157339,17.49989 0.401768118,15.7884724 1.91679071,15.2219649 L18.0716851,9.1829357 C19.5867077,8.61642821 21.2650436,9.40968738 21.8206005,10.9545726 C22.3761573,12.4987144 21.5982319,14.2108755 20.0832093,14.777383 L3.92831492,20.8171556 Z" id="Fill-3"></path>
                    <path d="M3.92831492,29.8170802 C2.41329233,30.3835627 0.734956435,29.5903385 0.179399548,28.0447779 C-0.376157339,26.4999608 0.401768118,24.7886186 1.91679071,24.2221361 L18.0716851,18.1826297 C19.5867077,17.6168906 21.2650436,18.4093714 21.8206005,19.9541885 C22.3761573,21.4990057 21.5982319,23.2103478 20.0832093,23.7775738 L3.92831492,29.8170802 Z" id="Fill-5"></path>
                </g>
            </g>
        </g>
    </g>
</svg>
