<?xml version="1.0" encoding="UTF-8"?>
<svg width="47px" height="12px" viewBox="0 0 47 12" version="1.1" xmlns="http://www.w3.org/2000/svg" xmlns:xlink="http://www.w3.org/1999/xlink">
    <g id="Symbols" stroke="none" stroke-width="1" fill="none" fill-rule="evenodd">
        <g id="Sidemenu" transform="translate(-45.000000, -20.000000)" fill="#fafafa">
            <path d="M55.144,24.104 C54.856,21.704 52.92,20.36 50.664,20.36 C47.464,20.36 45.56,22.76 45.56,25.848 C45.56,28.84 47.464,31.24 50.664,31.24 C53.224,31.24 55,29.608 55.224,27 L53.016,27 C52.84,28.376 52.056,29.32 50.664,29.32 C48.6,29.32 47.832,27.576 47.832,25.848 C47.832,24.04 48.6,22.28 50.664,22.28 C51.784,22.28 52.76,23.08 52.92,24.104 L55.144,24.104 Z M56.136,27.56 C56.088,30.12 58.264,31.24 60.552,31.24 C63.384,31.24 64.872,29.816 64.872,27.912 C64.872,25.576 62.568,25.064 61.784,24.888 C59.192,24.232 58.696,24.12 58.696,23.32 C58.696,22.44 59.544,22.136 60.264,22.136 C61.368,22.136 62.248,22.472 62.312,23.72 L64.52,23.72 C64.52,21.32 62.536,20.36 60.36,20.36 C58.488,20.36 56.488,21.368 56.488,23.512 C56.488,25.432 58.04,26.088 59.576,26.456 C61.096,26.888 62.664,27.048 62.664,28.184 C62.664,29.24 61.448,29.48 60.648,29.48 C59.416,29.48 58.344,28.936 58.344,27.56 L56.136,27.56 Z M68.504,22.392 L68.504,25.32 L71.016,25.32 C72.04,25.32 72.584,24.872 72.584,23.832 C72.584,22.824 72.04,22.392 71.016,22.392 L68.504,22.392 Z M66.232,31 L66.232,20.616 L71.832,20.616 C73.688,20.616 74.872,21.912 74.872,23.48 C74.872,24.696 74.392,25.624 73.224,26.088 L73.224,26.12 C74.344,26.424 74.664,27.48 74.744,28.536 C74.776,29.192 74.744,30.44 75.176,31 L72.888,31 C72.632,30.344 72.648,29.336 72.52,28.52 C72.36,27.416 71.944,26.936 70.792,26.936 L68.504,26.936 L68.504,31 L66.232,31 Z M76.488,27.912 L80.872,27.912 L80.872,26.136 L76.488,26.136 L76.488,27.912 Z M82.648,31 L84.92,31 L84.92,26.52 L89.128,26.52 L89.128,31 L91.416,31 L91.416,20.616 L89.128,20.616 L89.128,24.6 L84.92,24.6 L84.92,20.616 L82.648,20.616 L82.648,31 Z" id="logo_CSRH"></path>
        </g>
    </g>
</svg>
