<?xml version="1.0" encoding="UTF-8"?>
<svg width="50px" height="50px" viewBox="0 0 50 50" version="1.1" xmlns="http://www.w3.org/2000/svg" xmlns:xlink="http://www.w3.org/1999/xlink">
    <!-- Generator: Sketch 46.2 (44496) - http://www.bohemiancoding.com/sketch -->
    <title>img_ava_none</title>
    <desc>Created with Sketch.</desc>
    <defs>
        <rect id="path-1" x="0" y="0" width="50" height="50" rx="25"></rect>
    </defs>
    <g id="Symbols" stroke="none" stroke-width="1" fill="none" fill-rule="evenodd">
        <g id="img_ava_none">
            <g>
                <g id="Mask">
                    <use fill="#FFFFFF" xlink:href="#path-1"></use>
                    <use fill="#D8D8D8" xlink:href="#path-1"></use>
                </g>
                <path d="M33.5714286,30.1651786 C33.5714286,31.1383977 33.2924135,31.9732108 32.734375,32.6696429 C32.1763365,33.3660749 31.5044682,33.7142857 30.71875,33.7142857 L19.28125,33.7142857 C18.4955318,33.7142857 17.8236635,33.3660749 17.265625,32.6696429 C16.7075865,31.9732108 16.4285714,31.1383977 16.4285714,30.1651786 C16.4285714,29.4062462 16.4665175,28.6897355 16.5424107,28.015625 C16.618304,27.3415145 16.7589275,26.6629498 16.9642857,25.9799107 C17.1696439,25.2968716 17.430802,24.712056 17.7477679,24.2254464 C18.0647337,23.7388369 18.4843724,23.3415194 19.0066964,23.0334821 C19.5290205,22.7254449 20.1294609,22.5714286 20.8080357,22.5714286 C21.9776844,23.7142914 23.3749919,24.2857143 25,24.2857143 C26.6250081,24.2857143 28.0223156,23.7142914 29.1919643,22.5714286 C29.8705391,22.5714286 30.4709795,22.7254449 30.9933036,23.0334821 C31.5156276,23.3415194 31.9352663,23.7388369 32.2522321,24.2254464 C32.569198,24.712056 32.8303561,25.2968716 33.0357143,25.9799107 C33.2410725,26.6629498 33.381696,27.3415145 33.4575893,28.015625 C33.5334825,28.6897355 33.5714286,29.4062462 33.5714286,30.1651786 Z M30.1428571,18.2857143 C30.1428571,19.7053642 29.64063,20.9174057 28.6361607,21.921875 C27.6316914,22.9263443 26.41965,23.4285714 25,23.4285714 C23.58035,23.4285714 22.3683086,22.9263443 21.3638393,21.921875 C20.35937,20.9174057 19.8571429,19.7053642 19.8571429,18.2857143 C19.8571429,16.8660643 20.35937,15.6540229 21.3638393,14.6495536 C22.3683086,13.6450843 23.58035,13.1428571 25,13.1428571 C26.41965,13.1428571 27.6316914,13.6450843 28.6361607,14.6495536 C29.64063,15.6540229 30.1428571,16.8660643 30.1428571,18.2857143 Z" id="" fill="#FFFFFF"></path>
            </g>
        </g>
    </g>
</svg>